<?xml version="1.0" encoding="UTF-8" standalone="no"?>
<!DOCTYPE svg PUBLIC "-//W3C//DTD SVG 1.1//EN"
 "http://www.w3.org/Graphics/SVG/1.1/DTD/svg11.dtd">
<!-- Generated by graphviz version 2.47.2 (0)
 -->
<!-- Title: Carnegie Pages: 1 -->
<svg width="2757pt" height="1199pt"
 viewBox="0.00 0.00 2756.84 1199.41" xmlns="http://www.w3.org/2000/svg" xmlns:xlink="http://www.w3.org/1999/xlink">
<g id="graph0" class="graph" transform="scale(1 1) rotate(0) translate(4 1195.41)">
<title>Carnegie</title>
<polygon fill="white" stroke="transparent" points="-4,4 -4,-1195.41 2752.84,-1195.41 2752.84,4 -4,4"/>
<!-- Money -->
<g id="node1" class="node">
<title>Money</title>
<ellipse fill="none" stroke="green" cx="613.99" cy="-840" rx="42.49" ry="18"/>
<text text-anchor="middle" x="613.99" y="-836.3" font-family="Times,serif" font-size="14.00">Money</text>
</g>
<!-- D10 -->
<g id="node25" class="node">
<title>D10</title>
<polygon fill="lightcyan" stroke="black" points="773.99,-805.5 773.99,-874.5 974.99,-874.5 974.99,-805.5 773.99,-805.5"/>
<text text-anchor="middle" x="874.49" y="-859.3" font-family="Times,serif" font-size="14.00">Construction</text>
<polyline fill="none" stroke="black" points="773.99,-851.5 974.99,-851.5 "/>
<text text-anchor="middle" x="874.49" y="-836.3" font-family="Times,serif" font-size="14.00">Construction Outsourcing</text>
<polyline fill="none" stroke="black" points="773.99,-828.5 974.99,-828.5 "/>
<text text-anchor="middle" x="874.49" y="-813.3" font-family="Times,serif" font-size="14.00">1 Emp 3$</text>
</g>
<!-- Money&#45;&gt;D10 -->
<g id="edge29" class="edge">
<title>Money&#45;&gt;D10</title>
<path fill="none" stroke="green" stroke-width="4" d="M656.53,-840C685.54,-840 725.73,-840 763.64,-840"/>
<polygon fill="green" stroke="green" stroke-width="4" points="763.74,-843.5 773.74,-840 763.74,-836.5 763.74,-843.5"/>
<text text-anchor="middle" x="726.49" y="-843.8" font-family="Times,serif" font-size="14.00">4$</text>
</g>
<!-- D11 -->
<g id="node26" class="node">
<title>D11</title>
<polygon fill="lightcyan" stroke="black" points="992.99,-890.5 992.99,-959.5 1104.99,-959.5 1104.99,-890.5 992.99,-890.5"/>
<text text-anchor="middle" x="1048.99" y="-944.3" font-family="Times,serif" font-size="14.00">Construction</text>
<polyline fill="none" stroke="black" points="992.99,-936.5 1104.99,-936.5 "/>
<text text-anchor="middle" x="1048.99" y="-921.3" font-family="Times,serif" font-size="14.00">Supply Chain</text>
<polyline fill="none" stroke="black" points="992.99,-913.5 1104.99,-913.5 "/>
<text text-anchor="middle" x="1048.99" y="-898.3" font-family="Times,serif" font-size="14.00">2 Emp $1</text>
</g>
<!-- Money&#45;&gt;D11 -->
<g id="edge32" class="edge">
<title>Money&#45;&gt;D11</title>
<path fill="none" stroke="green" stroke-width="3" d="M648.51,-850.55C680.49,-860.32 730.14,-874.69 773.99,-884 844.75,-899.03 926.93,-910.55 982.69,-917.5"/>
<polygon fill="green" stroke="green" stroke-width="3" points="982.44,-920.99 992.79,-918.74 983.29,-914.04 982.44,-920.99"/>
<text text-anchor="middle" x="726.49" y="-883.8" font-family="Times,serif" font-size="14.00">up to 3x</text>
</g>
<!-- Goods -->
<g id="node2" class="node">
<title>Goods</title>
<ellipse fill="none" stroke="blue" cx="2058.25" cy="-875" rx="39.79" ry="18"/>
<text text-anchor="middle" x="2058.25" y="-871.3" font-family="Times,serif" font-size="14.00">Goods</text>
</g>
<!-- D_Planning -->
<g id="node18" class="node">
<title>D_Planning</title>
<polygon fill="lightcoral" stroke="black" points="2328.25,-878.5 2328.25,-947.5 2508.25,-947.5 2508.25,-878.5 2328.25,-878.5"/>
<text text-anchor="middle" x="2418.25" y="-932.3" font-family="Times,serif" font-size="14.00">Management</text>
<polyline fill="none" stroke="black" points="2328.25,-924.5 2508.25,-924.5 "/>
<text text-anchor="middle" x="2418.25" y="-909.3" font-family="Times,serif" font-size="14.00">Planning (build a dept)</text>
<polyline fill="none" stroke="black" points="2328.25,-901.5 2508.25,-901.5 "/>
<text text-anchor="middle" x="2418.25" y="-886.3" font-family="Times,serif" font-size="14.00">3 Emp 5$</text>
</g>
<!-- Goods&#45;&gt;D_Planning -->
<g id="edge13" class="edge">
<title>Goods&#45;&gt;D_Planning</title>
<path fill="none" stroke="blue" d="M2095.79,-880.94C2113.17,-883.63 2134.25,-886.72 2153.25,-889 2207.65,-895.52 2268.55,-901.16 2318.14,-905.34"/>
<polygon fill="blue" stroke="blue" points="2317.96,-908.84 2328.22,-906.18 2318.54,-901.86 2317.96,-908.84"/>
<text text-anchor="middle" x="2231.75" y="-908.8" font-family="Times,serif" font-size="14.00">1x/2x</text>
</g>
<!-- D6 -->
<g id="node20" class="node">
<title>D6</title>
<polygon fill="lightcoral" stroke="black" points="2363.25,-421.5 2363.25,-490.5 2473.25,-490.5 2473.25,-421.5 2363.25,-421.5"/>
<text text-anchor="middle" x="2418.25" y="-475.3" font-family="Times,serif" font-size="14.00">Management</text>
<polyline fill="none" stroke="black" points="2363.25,-467.5 2473.25,-467.5 "/>
<text text-anchor="middle" x="2418.25" y="-452.3" font-family="Times,serif" font-size="14.00">Sales</text>
<polyline fill="none" stroke="black" points="2363.25,-444.5 2473.25,-444.5 "/>
<text text-anchor="middle" x="2418.25" y="-429.3" font-family="Times,serif" font-size="14.00">2 Emp 1$</text>
</g>
<!-- Goods&#45;&gt;D6 -->
<g id="edge17" class="edge">
<title>Goods&#45;&gt;D6</title>
<path fill="none" stroke="blue" d="M2070.79,-857.56C2087.92,-831.99 2121.49,-783.11 2153.25,-744 2227.39,-652.74 2322.17,-553.02 2375.65,-498.14"/>
<polygon fill="blue" stroke="blue" points="2378.43,-500.3 2382.91,-490.7 2373.42,-495.41 2378.43,-500.3"/>
<text text-anchor="middle" x="2231.75" y="-747.8" font-family="Times,serif" font-size="14.00">1x&#45;3x</text>
</g>
<!-- D7 -->
<g id="node21" class="node">
<title>D7</title>
<polygon fill="lightcoral" stroke="black" points="2363.25,-1092.5 2363.25,-1161.5 2473.25,-1161.5 2473.25,-1092.5 2363.25,-1092.5"/>
<text text-anchor="middle" x="2418.25" y="-1146.3" font-family="Times,serif" font-size="14.00">Management</text>
<polyline fill="none" stroke="black" points="2363.25,-1138.5 2473.25,-1138.5 "/>
<text text-anchor="middle" x="2418.25" y="-1123.3" font-family="Times,serif" font-size="14.00">Logistics</text>
<polyline fill="none" stroke="black" points="2363.25,-1115.5 2473.25,-1115.5 "/>
<text text-anchor="middle" x="2418.25" y="-1100.3" font-family="Times,serif" font-size="14.00">2 Emp 3$</text>
</g>
<!-- Goods&#45;&gt;D7 -->
<g id="edge20" class="edge">
<title>Goods&#45;&gt;D7</title>
<path fill="none" stroke="blue" d="M2084.54,-888.81C2103.32,-898.91 2129.66,-912.76 2153.25,-924 2221.9,-956.71 2262.52,-932.81 2310.25,-992 2336.14,-1024.09 2303.19,-1050.27 2328.25,-1083 2335.14,-1092 2344.36,-1099.27 2354.26,-1105.12"/>
<polygon fill="blue" stroke="blue" points="2352.64,-1108.22 2363.1,-1109.9 2355.97,-1102.07 2352.64,-1108.22"/>
<text text-anchor="middle" x="2231.75" y="-995.8" font-family="Times,serif" font-size="14.00">up to 3x</text>
</g>
<!-- D_C -->
<g id="node23" class="node">
<title>D_C</title>
<polygon fill="lightcyan" stroke="black" points="2363.75,-651.5 2363.75,-720.5 2472.75,-720.5 2472.75,-651.5 2363.75,-651.5"/>
<text text-anchor="middle" x="2418.25" y="-705.3" font-family="Times,serif" font-size="14.00">Construction</text>
<polyline fill="none" stroke="black" points="2363.75,-697.5 2472.75,-697.5 "/>
<text text-anchor="middle" x="2418.25" y="-682.3" font-family="Times,serif" font-size="14.00">Construction</text>
<polyline fill="none" stroke="black" points="2363.75,-674.5 2472.75,-674.5 "/>
<text text-anchor="middle" x="2418.25" y="-659.3" font-family="Times,serif" font-size="14.00">3 Emp 1$</text>
</g>
<!-- Goods&#45;&gt;D_C -->
<g id="edge23" class="edge">
<title>Goods&#45;&gt;D_C</title>
<path fill="none" stroke="blue" stroke-width="2" d="M2076.24,-858.86C2094.08,-842.74 2123.62,-818.36 2153.25,-804 2218.16,-772.56 2253.44,-807.41 2310.25,-763 2323.42,-752.71 2316.21,-741.57 2328.25,-730 2335.89,-722.67 2344.97,-716.33 2354.38,-710.92"/>
<polygon fill="blue" stroke="blue" stroke-width="2" points="2356.33,-713.84 2363.46,-706.01 2353,-707.68 2356.33,-713.84"/>
<text text-anchor="middle" x="2231.75" y="-807.8" font-family="Times,serif" font-size="14.00">1x/2x</text>
</g>
<!-- D9 -->
<g id="node24" class="node">
<title>D9</title>
<polygon fill="lightcyan" stroke="black" points="2363.75,-739.5 2363.75,-808.5 2472.75,-808.5 2472.75,-739.5 2363.75,-739.5"/>
<text text-anchor="middle" x="2418.25" y="-793.3" font-family="Times,serif" font-size="14.00">Construction</text>
<polyline fill="none" stroke="black" points="2363.75,-785.5 2472.75,-785.5 "/>
<text text-anchor="middle" x="2418.25" y="-770.3" font-family="Times,serif" font-size="14.00">Construction</text>
<polyline fill="none" stroke="black" points="2363.75,-762.5 2472.75,-762.5 "/>
<text text-anchor="middle" x="2418.25" y="-747.3" font-family="Times,serif" font-size="14.00">3 Emp 1$</text>
</g>
<!-- Goods&#45;&gt;D9 -->
<g id="edge26" class="edge">
<title>Goods&#45;&gt;D9</title>
<path fill="none" stroke="blue" d="M2090.26,-864.12C2108.43,-858.07 2131.93,-850.82 2153.25,-846 2222.04,-830.45 2242.63,-842.99 2310.25,-823 2324.96,-818.65 2340.24,-812.64 2354.5,-806.32"/>
<polygon fill="blue" stroke="blue" points="2356.05,-809.46 2363.7,-802.13 2353.15,-803.09 2356.05,-809.46"/>
<text text-anchor="middle" x="2231.75" y="-849.8" font-family="Times,serif" font-size="14.00">1x even for expensive</text>
</g>
<!-- Goods&#45;&gt;D10 -->
<g id="edge30" class="edge">
<title>Goods&#45;&gt;D10</title>
<path fill="none" stroke="blue" stroke-width="2" d="M2018.5,-875C1969.6,-875 1882.9,-875 1808.66,-875 1199.99,-875 1199.99,-875 1199.99,-875 1128.18,-875 1047.95,-866.42 985.24,-857.76"/>
<polygon fill="blue" stroke="blue" stroke-width="2" points="985.71,-854.3 975.32,-856.37 984.74,-861.23 985.71,-854.3"/>
<text text-anchor="middle" x="1428.53" y="-878.8" font-family="Times,serif" font-size="14.00">1x/2x</text>
</g>
<!-- Employees -->
<g id="node3" class="node">
<title>Employees</title>
<ellipse fill="none" stroke="orange" cx="2058.25" cy="-557" rx="61.99" ry="18"/>
<text text-anchor="middle" x="2058.25" y="-553.3" font-family="Times,serif" font-size="14.00">Employees</text>
</g>
<!-- Buildprojects -->
<g id="node4" class="node">
<title>Buildprojects</title>
<ellipse fill="none" stroke="black" cx="1200.99" cy="-770" rx="72.59" ry="18"/>
<text text-anchor="middle" x="1200.99" y="-766.3" font-family="Times,serif" font-size="14.00">Buildprojects</text>
</g>
<!-- Buildprojects&#45;&gt;Employees -->
<g id="edge47" class="edge">
<title>Buildprojects&#45;&gt;Employees</title>
<path fill="none" stroke="orange" d="M1222.31,-752.61C1247.8,-730.51 1292.47,-690.8 1327.99,-654 1336.53,-645.15 1335.26,-639.01 1345.99,-633 1415.71,-593.94 1621.61,-584.47 1701.07,-576 1799.67,-565.49 1914.28,-560.69 1986.29,-558.57"/>
<polygon fill="orange" stroke="orange" points="1986.7,-562.06 1996.6,-558.28 1986.5,-555.07 1986.7,-562.06"/>
<text text-anchor="middle" x="1606.07" y="-595.8" font-family="Times,serif" font-size="14.00">may</text>
</g>
<!-- Researchpoints -->
<g id="node11" class="node">
<title>Researchpoints</title>
<ellipse fill="none" stroke="cornflowerblue" cx="1428.53" cy="-565" rx="82.59" ry="18"/>
<text text-anchor="middle" x="1428.53" y="-561.3" font-family="Times,serif" font-size="14.00">Researchpoints</text>
</g>
<!-- Buildprojects&#45;&gt;Researchpoints -->
<g id="edge48" class="edge">
<title>Buildprojects&#45;&gt;Researchpoints</title>
<path fill="none" stroke="cornflowerblue" d="M1224.43,-752.88C1241.54,-738.76 1264.56,-717.32 1278.99,-694 1292.52,-672.13 1281.95,-659.87 1296.99,-639 1307.02,-625.08 1314.68,-626.82 1327.99,-616 1336.29,-609.25 1336.95,-605.74 1345.99,-600 1355.15,-594.18 1365.44,-588.91 1375.55,-584.34"/>
<polygon fill="cornflowerblue" stroke="cornflowerblue" points="1376.97,-587.53 1384.74,-580.33 1374.18,-581.12 1376.97,-587.53"/>
<text text-anchor="middle" x="1312.49" y="-642.8" font-family="Times,serif" font-size="14.00">may</text>
</g>
<!-- Movements -->
<g id="node5" class="node">
<title>Movements</title>
<ellipse fill="none" stroke="orange" cx="613.99" cy="-150" rx="64.99" ry="18"/>
<text text-anchor="middle" x="613.99" y="-146.3" font-family="Times,serif" font-size="14.00">Movements</text>
</g>
<!-- Transportationlevels -->
<g id="node6" class="node">
<title>Transportationlevels</title>
<ellipse fill="none" stroke="black" cx="1807.66" cy="-691" rx="106.68" ry="18"/>
<text text-anchor="middle" x="1807.66" y="-687.3" font-family="Times,serif" font-size="14.00">Transportationlevels</text>
</g>
<!-- Transportationlevels&#45;&gt;Money -->
<g id="edge45" class="edge">
<title>Transportationlevels&#45;&gt;Money</title>
<path fill="none" stroke="green" d="M1723.06,-680.02C1714.78,-676.06 1707.19,-670.84 1701.07,-664 1662.49,-620.85 1725.21,-574.7 1683.07,-535 1624.63,-479.94 1254.7,-463.28 1122.99,-503 911.26,-566.84 706.74,-750.97 638.71,-816.5"/>
<polygon fill="green" stroke="green" points="636.2,-814.06 631.46,-823.54 641.08,-819.08 636.2,-814.06"/>
<text text-anchor="middle" x="1200.99" y="-506.8" font-family="Times,serif" font-size="14.00">may</text>
</g>
<!-- Transportationlevels&#45;&gt;Goods -->
<g id="edge44" class="edge">
<title>Transportationlevels&#45;&gt;Goods</title>
<path fill="none" stroke="blue" d="M1891.25,-702.2C1899.82,-706.11 1907.75,-711.26 1914.25,-718 1940.45,-745.18 1910.17,-770.39 1932.25,-801 1952.91,-829.63 1988.36,-849.08 2016.24,-860.82"/>
<polygon fill="blue" stroke="blue" points="2015.16,-864.17 2025.75,-864.66 2017.78,-857.67 2015.16,-864.17"/>
<text text-anchor="middle" x="1947.75" y="-835.8" font-family="Times,serif" font-size="14.00">may</text>
</g>
<!-- Transportationlevels&#45;&gt;Employees -->
<g id="edge43" class="edge">
<title>Transportationlevels&#45;&gt;Employees</title>
<path fill="none" stroke="orange" d="M1877.92,-677.45C1890.33,-673.86 1902.9,-669.43 1914.25,-664 1959.31,-642.44 2004.29,-605.64 2031.45,-581.32"/>
<polygon fill="orange" stroke="orange" points="2033.9,-583.82 2038.95,-574.51 2029.19,-578.64 2033.9,-583.82"/>
<text text-anchor="middle" x="1947.75" y="-656.8" font-family="Times,serif" font-size="14.00">may</text>
</g>
<!-- Transportationlevels&#45;&gt;Researchpoints -->
<g id="edge46" class="edge">
<title>Transportationlevels&#45;&gt;Researchpoints</title>
<path fill="none" stroke="cornflowerblue" d="M1723.2,-679.9C1714.89,-675.96 1707.26,-670.78 1701.07,-664 1667.08,-626.77 1721.45,-584.7 1683.07,-552 1656.35,-529.23 1564.69,-539.84 1499.27,-551.09"/>
<polygon fill="cornflowerblue" stroke="cornflowerblue" points="1498.65,-547.65 1489.41,-552.83 1499.87,-554.54 1498.65,-547.65"/>
<text text-anchor="middle" x="1606.07" y="-555.8" font-family="Times,serif" font-size="14.00">only in midwest</text>
</g>
<!-- Researchprojects -->
<g id="node7" class="node">
<title>Researchprojects</title>
<ellipse fill="none" stroke="black" cx="1807.66" cy="-745" rx="90.98" ry="18"/>
<text text-anchor="middle" x="1807.66" y="-741.3" font-family="Times,serif" font-size="14.00">Researchprojects</text>
</g>
<!-- Researchprojects&#45;&gt;Buildprojects -->
<g id="edge42" class="edge">
<title>Researchprojects&#45;&gt;Buildprojects</title>
<path fill="none" stroke="black" d="M1717.47,-747.8C1624.65,-750.83 1475.1,-756.03 1345.99,-762 1325.25,-762.96 1302.83,-764.14 1282,-765.29"/>
<polygon fill="black" stroke="black" points="1281.71,-761.8 1271.92,-765.85 1282.1,-768.79 1281.71,-761.8"/>
<text text-anchor="middle" x="1428.53" y="-765.8" font-family="Times,serif" font-size="14.00">precondition</text>
</g>
<!-- Mission -->
<g id="node8" class="node">
<title>Mission</title>
<ellipse fill="none" stroke="purple" cx="2676.05" cy="-645" rx="46.59" ry="18"/>
<text text-anchor="middle" x="2676.05" y="-641.3" font-family="Times,serif" font-size="14.00">Mission</text>
</g>
<!-- Mission&#45;&gt;Money -->
<g id="edge49" class="edge">
<title>Mission&#45;&gt;Money</title>
<path fill="none" stroke="green" d="M2674.23,-626.81C2671.11,-578.23 2656.17,-443.88 2585.25,-366 2532.73,-308.32 2497.26,-309 2419.25,-309 873.49,-309 873.49,-309 873.49,-309 647.75,-309 619.1,-701.76 615.5,-811.7"/>
<polygon fill="green" stroke="green" points="612,-811.63 615.22,-821.72 619,-811.82 612,-811.63"/>
<text text-anchor="middle" x="1606.07" y="-312.8" font-family="Times,serif" font-size="14.00">dep on transportlevel</text>
</g>
<!-- Mission&#45;&gt;Goods -->
<g id="edge50" class="edge">
<title>Mission&#45;&gt;Goods</title>
<path fill="none" stroke="blue" d="M2663.68,-662.59C2639.65,-698.2 2580,-778.76 2508.25,-818 2436.68,-857.15 2406.57,-831.13 2328.25,-854 2320.02,-856.41 2318.64,-859.18 2310.25,-861 2241.22,-875.95 2159.15,-877.59 2108.12,-876.78"/>
<polygon fill="blue" stroke="blue" points="2108.1,-873.28 2098.03,-876.58 2107.96,-880.28 2108.1,-873.28"/>
<text text-anchor="middle" x="2418.25" y="-857.8" font-family="Times,serif" font-size="14.00">dep on transportlevel</text>
</g>
<!-- Mission&#45;&gt;Researchpoints -->
<g id="edge51" class="edge">
<title>Mission&#45;&gt;Researchpoints</title>
<path fill="none" stroke="black" d="M2667.85,-627.27C2648.93,-583.11 2593.36,-467.75 2508.25,-412 2474.42,-389.84 2459.7,-393 2419.25,-393 1946.75,-393 1946.75,-393 1946.75,-393 1758.4,-393 1550.28,-496.97 1466.98,-543.24"/>
<polygon fill="black" stroke="black" points="1465.16,-540.25 1458.15,-548.19 1468.58,-546.36 1465.16,-540.25"/>
<text text-anchor="middle" x="2058.25" y="-396.8" font-family="Times,serif" font-size="14.00">dep on transportlevel</text>
</g>
<!-- Charity -->
<g id="node9" class="node">
<title>Charity</title>
<ellipse fill="none" stroke="red" cx="613.99" cy="-959" rx="45.49" ry="18"/>
<text text-anchor="middle" x="613.99" y="-955.3" font-family="Times,serif" font-size="14.00">Charity</text>
</g>
<!-- Victorypoints -->
<g id="node10" class="node">
<title>Victorypoints</title>
<ellipse fill="none" stroke="red" cx="2676.05" cy="-1146" rx="72.59" ry="18"/>
<text text-anchor="middle" x="2676.05" y="-1142.3" font-family="Times,serif" font-size="14.00">Victorypoints</text>
</g>
<!-- Researchpoints&#45;&gt;Transportationlevels -->
<g id="edge53" class="edge">
<title>Researchpoints&#45;&gt;Transportationlevels</title>
<path fill="none" stroke="cornflowerblue" d="M1508.07,-569.86C1577.57,-574.88 1669.96,-583.57 1683.07,-595 1706.97,-615.82 1678.61,-641.64 1701.07,-664 1705.37,-668.28 1710.24,-671.9 1715.48,-674.98"/>
<polygon fill="cornflowerblue" stroke="cornflowerblue" points="1714.11,-678.21 1724.61,-679.65 1717.3,-671.98 1714.11,-678.21"/>
</g>
<!-- Researchpoints&#45;&gt;Researchprojects -->
<g id="edge52" class="edge">
<title>Researchpoints&#45;&gt;Researchprojects</title>
<path fill="none" stroke="cornflowerblue" d="M1452.17,-582.46C1471.67,-596.83 1501.03,-616.89 1529.07,-630 1593.9,-660.31 1629.59,-629.46 1683.07,-677 1697.95,-690.22 1685.9,-705.12 1701.07,-718 1707.38,-723.35 1714.61,-727.67 1722.27,-731.14"/>
<polygon fill="cornflowerblue" stroke="cornflowerblue" points="1721.21,-734.48 1731.79,-734.97 1723.82,-727.99 1721.21,-734.48"/>
</g>
<!-- D_HR -->
<g id="node12" class="node">
<title>D_HR</title>
<polygon fill="lightblue" stroke="black" points="69.5,-153.5 69.5,-222.5 277.5,-222.5 277.5,-153.5 69.5,-153.5"/>
<text text-anchor="middle" x="173.5" y="-207.3" font-family="Times,serif" font-size="14.00">HR</text>
<polyline fill="none" stroke="black" points="69.5,-199.5 277.5,-199.5 "/>
<text text-anchor="middle" x="173.5" y="-184.3" font-family="Times,serif" font-size="14.00">HR</text>
<polyline fill="none" stroke="black" points="69.5,-176.5 277.5,-176.5 "/>
<text text-anchor="middle" x="173.5" y="-161.3" font-family="Times,serif" font-size="14.00">3 Emp (1 always occupied)</text>
</g>
<!-- D_HR&#45;&gt;Movements -->
<g id="edge1" class="edge">
<title>D_HR&#45;&gt;Movements</title>
<path fill="none" stroke="orange" stroke-width="3" d="M277.58,-179.07C358.78,-172.03 469.87,-162.4 541.53,-156.19"/>
<polygon fill="orange" stroke="orange" stroke-width="3" points="542.15,-159.65 551.81,-155.3 541.55,-152.68 542.15,-159.65"/>
<text text-anchor="middle" x="448" y="-175.8" font-family="Times,serif" font-size="14.00">3x</text>
</g>
<!-- D1 -->
<g id="node13" class="node">
<title>D1</title>
<polygon fill="lightblue" stroke="black" points="72,-241.5 72,-310.5 275,-310.5 275,-241.5 72,-241.5"/>
<text text-anchor="middle" x="173.5" y="-295.3" font-family="Times,serif" font-size="14.00">HR</text>
<polyline fill="none" stroke="black" points="72,-287.5 275,-287.5 "/>
<text text-anchor="middle" x="173.5" y="-272.3" font-family="Times,serif" font-size="14.00">Training and Partnerships</text>
<polyline fill="none" stroke="black" points="72,-264.5 275,-264.5 "/>
<text text-anchor="middle" x="173.5" y="-249.3" font-family="Times,serif" font-size="14.00">1 Emp 2$</text>
</g>
<!-- D1&#45;&gt;Money -->
<g id="edge3" class="edge">
<title>D1&#45;&gt;Money</title>
<path fill="none" stroke="green" stroke-width="8" d="M201.6,-310.86C282.82,-415.32 522.96,-724.19 593.37,-814.77"/>
<polygon fill="green" stroke="green" stroke-width="8" points="587.98,-819.24 599.65,-822.83 599.04,-810.64 587.98,-819.24"/>
<text text-anchor="middle" x="448" y="-736.8" font-family="Times,serif" font-size="14.00">8$</text>
</g>
<!-- D1&#45;&gt;Movements -->
<g id="edge2" class="edge">
<title>D1&#45;&gt;Movements</title>
<path fill="none" stroke="orange" stroke-width="8" d="M275.03,-258.44C347.46,-244.26 446.84,-221.61 531,-191 545.95,-185.56 561.72,-178.12 575.4,-171.07"/>
<polygon fill="orange" stroke="orange" stroke-width="8" points="578.91,-177.13 584.49,-166.28 572.38,-164.75 578.91,-177.13"/>
<text text-anchor="middle" x="448" y="-242.8" font-family="Times,serif" font-size="14.00">8x</text>
</g>
<!-- D1&#45;&gt;Mission -->
<g id="edge4" class="edge">
<title>D1&#45;&gt;Mission</title>
<path fill="none" stroke="purple" d="M275.07,-274.2C363.95,-272.77 497.08,-271 612.99,-271 612.99,-271 612.99,-271 2419.25,-271 2495.93,-271 2531.64,-263.18 2585.25,-318 2667.38,-401.98 2676.04,-553.68 2675.86,-616.54"/>
<polygon fill="purple" stroke="purple" points="2672.35,-616.82 2675.74,-626.86 2679.35,-616.9 2672.35,-616.82"/>
</g>
<!-- D2 -->
<g id="node14" class="node">
<title>D2</title>
<polygon fill="lightblue" stroke="black" points="1761.66,-459.5 1761.66,-528.5 1853.66,-528.5 1853.66,-459.5 1761.66,-459.5"/>
<text text-anchor="middle" x="1807.66" y="-513.3" font-family="Times,serif" font-size="14.00">HR</text>
<polyline fill="none" stroke="black" points="1761.66,-505.5 1853.66,-505.5 "/>
<text text-anchor="middle" x="1807.66" y="-490.3" font-family="Times,serif" font-size="14.00">Recruiting</text>
<polyline fill="none" stroke="black" points="1761.66,-482.5 1853.66,-482.5 "/>
<text text-anchor="middle" x="1807.66" y="-467.3" font-family="Times,serif" font-size="14.00">1 Emp 1$</text>
</g>
<!-- D2&#45;&gt;Employees -->
<g id="edge5" class="edge">
<title>D2&#45;&gt;Employees</title>
<path fill="none" stroke="orange" d="M1853.68,-505.41C1895.05,-515.89 1956.52,-531.47 2001.08,-542.76"/>
<polygon fill="orange" stroke="orange" points="2000.33,-546.18 2010.89,-545.25 2002.05,-539.4 2000.33,-546.18"/>
</g>
<!-- D2&#45;&gt;Mission -->
<g id="edge6" class="edge">
<title>D2&#45;&gt;Mission</title>
<path fill="none" stroke="purple" d="M1853.76,-497.55C1916.94,-502.86 2035.28,-513.96 2135.25,-530 2318.05,-559.32 2532.4,-609.89 2626.55,-632.93"/>
<polygon fill="purple" stroke="purple" points="2625.81,-636.35 2636.35,-635.34 2627.48,-629.56 2625.81,-636.35"/>
</g>
<!-- D3 -->
<g id="node15" class="node">
<title>D3</title>
<polygon fill="lightblue" stroke="black" points="2343.75,-1004.5 2343.75,-1073.5 2492.75,-1073.5 2492.75,-1004.5 2343.75,-1004.5"/>
<text text-anchor="middle" x="2418.25" y="-1058.3" font-family="Times,serif" font-size="14.00">HR</text>
<polyline fill="none" stroke="black" points="2343.75,-1050.5 2492.75,-1050.5 "/>
<text text-anchor="middle" x="2418.25" y="-1035.3" font-family="Times,serif" font-size="14.00">Safety and Quality</text>
<polyline fill="none" stroke="black" points="2343.75,-1027.5 2492.75,-1027.5 "/>
<text text-anchor="middle" x="2418.25" y="-1012.3" font-family="Times,serif" font-size="14.00">1 Emp $5</text>
</g>
<!-- D3&#45;&gt;Mission -->
<g id="edge7" class="edge">
<title>D3&#45;&gt;Mission</title>
<path fill="none" stroke="purple" d="M2492.98,-1033.38C2525.28,-1027.24 2561.22,-1014.83 2585.25,-990 2629.77,-944.01 2660.97,-747.14 2671.31,-673.21"/>
<polygon fill="purple" stroke="purple" points="2674.79,-673.61 2672.68,-663.22 2667.85,-672.65 2674.79,-673.61"/>
</g>
<!-- D3&#45;&gt;Victorypoints -->
<g id="edge8" class="edge">
<title>D3&#45;&gt;Victorypoints</title>
<path fill="none" stroke="red" d="M2492.9,-1069.81C2536.71,-1088.13 2590.95,-1110.82 2628.79,-1126.65"/>
<polygon fill="red" stroke="red" points="2627.47,-1129.89 2638.05,-1130.52 2630.17,-1123.43 2627.47,-1129.89"/>
</g>
<!-- D4 -->
<g id="node16" class="node">
<title>D4</title>
<polygon fill="lightblue" stroke="black" points="111,-88 111,-134 236,-134 236,-88 111,-88"/>
<text text-anchor="middle" x="173.5" y="-118.8" font-family="Times,serif" font-size="14.00">HR Continuous</text>
<polyline fill="none" stroke="black" points="111,-111 236,-111 "/>
<text text-anchor="middle" x="173.5" y="-95.8" font-family="Times,serif" font-size="14.00">New Lobby</text>
</g>
<!-- D4&#45;&gt;Movements -->
<g id="edge9" class="edge">
<title>D4&#45;&gt;Movements</title>
<path fill="none" stroke="orange" d="M236.1,-114.81C307.25,-119.44 427.75,-128.03 531,-139 535.75,-139.5 540.65,-140.06 545.58,-140.65"/>
<polygon fill="orange" stroke="orange" points="545.35,-144.15 555.7,-141.91 546.2,-137.21 545.35,-144.15"/>
<text text-anchor="middle" x="448" y="-142.8" font-family="Times,serif" font-size="14.00">short ways</text>
</g>
<!-- D_TC -->
<g id="node17" class="node">
<title>D_TC</title>
<polygon fill="lightcoral" stroke="black" points="0,-986.5 0,-1055.5 347,-1055.5 347,-986.5 0,-986.5"/>
<text text-anchor="middle" x="173.5" y="-1040.3" font-family="Times,serif" font-size="14.00">Management</text>
<polyline fill="none" stroke="black" points="0,-1032.5 347,-1032.5 "/>
<text text-anchor="middle" x="173.5" y="-1017.3" font-family="Times,serif" font-size="14.00">Trade&amp;Commerce (higher value with mission)</text>
<polyline fill="none" stroke="black" points="0,-1009.5 347,-1009.5 "/>
<text text-anchor="middle" x="173.5" y="-994.3" font-family="Times,serif" font-size="14.00">3 Emp</text>
</g>
<!-- D_TC&#45;&gt;Money -->
<g id="edge11" class="edge">
<title>D_TC&#45;&gt;Money</title>
<path fill="none" stroke="green" stroke-width="3" d="M281.47,-986.3C304.99,-975.14 328.4,-960.88 347,-943 359.89,-930.6 350.87,-917.97 365,-907 424.62,-860.69 458.61,-892.41 531,-871 545.21,-866.8 560.47,-861.31 573.93,-856.12"/>
<polygon fill="green" stroke="green" stroke-width="3" points="575.34,-859.32 583.37,-852.41 572.78,-852.81 575.34,-859.32"/>
<text text-anchor="middle" x="448" y="-910.8" font-family="Times,serif" font-size="14.00">3$/6$</text>
</g>
<!-- D_TC&#45;&gt;Goods -->
<g id="edge10" class="edge">
<title>D_TC&#45;&gt;Goods</title>
<path fill="none" stroke="blue" d="M347.1,-1021C427.86,-1021 525.35,-1021 612.99,-1021 612.99,-1021 612.99,-1021 1201.99,-1021 1520.59,-1021 1605.17,-1017.29 1914.25,-940 1953.95,-930.07 1996.24,-909.46 2024.44,-894.09"/>
<polygon fill="blue" stroke="blue" points="2026.39,-897.01 2033.44,-889.1 2023,-890.89 2026.39,-897.01"/>
<text text-anchor="middle" x="1200.99" y="-1024.8" font-family="Times,serif" font-size="14.00">1x/2x</text>
</g>
<!-- D_TC&#45;&gt;Mission -->
<g id="edge12" class="edge">
<title>D_TC&#45;&gt;Mission</title>
<path fill="none" stroke="purple" d="M347.2,-1046.95C427.77,-1056.94 525.08,-1066 612.99,-1066 612.99,-1066 612.99,-1066 1313.49,-1066 1380.14,-1066 2452.7,-993.83 2508.25,-957 2610.85,-888.99 2655.03,-736.26 2669.38,-673.13"/>
<polygon fill="purple" stroke="purple" points="2672.86,-673.62 2671.58,-663.11 2666.02,-672.12 2672.86,-673.62"/>
<text text-anchor="middle" x="1428.53" y="-1067.8" font-family="Times,serif" font-size="14.00">optional</text>
</g>
<!-- D5 -->
<g id="node19" class="node">
<title>D5</title>
<polygon fill="lightcoral" stroke="black" points="1752.66,-585.5 1752.66,-654.5 1862.66,-654.5 1862.66,-585.5 1752.66,-585.5"/>
<text text-anchor="middle" x="1807.66" y="-639.3" font-family="Times,serif" font-size="14.00">Management</text>
<polyline fill="none" stroke="black" points="1752.66,-631.5 1862.66,-631.5 "/>
<text text-anchor="middle" x="1807.66" y="-616.3" font-family="Times,serif" font-size="14.00">Purchasing</text>
<polyline fill="none" stroke="black" points="1752.66,-608.5 1862.66,-608.5 "/>
<text text-anchor="middle" x="1807.66" y="-593.3" font-family="Times,serif" font-size="14.00">2 Emp</text>
</g>
<!-- D5&#45;&gt;Goods -->
<g id="edge14" class="edge">
<title>D5&#45;&gt;Goods</title>
<path fill="none" stroke="blue" stroke-width="3" d="M1862.73,-635.63C1880.37,-642.45 1899.26,-651.75 1914.25,-664 1977.98,-716.06 2024.57,-803.8 2045.3,-847.94"/>
<polygon fill="blue" stroke="blue" stroke-width="3" points="2042.19,-849.55 2049.56,-857.17 2048.55,-846.62 2042.19,-849.55"/>
<text text-anchor="middle" x="1947.75" y="-717.8" font-family="Times,serif" font-size="14.00">3x</text>
</g>
<!-- D5&#45;&gt;Mission -->
<g id="edge15" class="edge">
<title>D5&#45;&gt;Mission</title>
<path fill="none" stroke="purple" d="M1862.86,-621.56C2017.76,-626.03 2461.36,-638.83 2618.79,-643.38"/>
<polygon fill="purple" stroke="purple" points="2619.09,-646.89 2629.18,-643.68 2619.29,-639.89 2619.09,-646.89"/>
</g>
<!-- D6&#45;&gt;Money -->
<g id="edge16" class="edge">
<title>D6&#45;&gt;Money</title>
<path fill="none" stroke="green" stroke-width="5" d="M2362.92,-455.14C2270.68,-453.73 2077.56,-450.97 1914.25,-450 1504.08,-447.55 1392.74,-413.08 992.99,-505 894.97,-527.54 853.88,-500.9 773.99,-562 687.3,-628.3 640.08,-756.36 622.76,-812.5"/>
<polygon fill="green" stroke="green" stroke-width="5" points="618.56,-811.28 619.87,-822.11 626.94,-813.79 618.56,-811.28"/>
<text text-anchor="middle" x="1428.53" y="-450.8" font-family="Times,serif" font-size="14.00">5$ (1 to 3 times)</text>
</g>
<!-- D7&#45;&gt;Money -->
<g id="edge18" class="edge">
<title>D7&#45;&gt;Money</title>
<path fill="none" stroke="green" stroke-width="3" d="M2362.91,-1120.96C2118.94,-1093.81 1130.66,-983.39 992.99,-961 860.32,-939.42 819.98,-953.21 696.99,-899 676.54,-889.99 656.14,-875.33 640.8,-862.88"/>
<polygon fill="green" stroke="green" stroke-width="3" points="642.75,-859.96 632.83,-856.24 638.27,-865.33 642.75,-859.96"/>
<text text-anchor="middle" x="1428.53" y="-1027.8" font-family="Times,serif" font-size="14.00">3$ (up to 3x)</text>
</g>
<!-- D7&#45;&gt;Victorypoints -->
<g id="edge19" class="edge">
<title>D7&#45;&gt;Victorypoints</title>
<path fill="none" stroke="red" d="M2473.5,-1131.03C2509.12,-1133.67 2556.29,-1137.18 2596.05,-1140.13"/>
<polygon fill="red" stroke="red" points="2596.02,-1143.64 2606.25,-1140.89 2596.53,-1136.66 2596.02,-1143.64"/>
<text text-anchor="middle" x="2555.75" y="-1142.8" font-family="Times,serif" font-size="14.00">up to 3x</text>
</g>
<!-- D8 -->
<g id="node22" class="node">
<title>D8</title>
<polygon fill="lightcoral" stroke="black" points="75.5,-0.5 75.5,-69.5 271.5,-69.5 271.5,-0.5 75.5,-0.5"/>
<text text-anchor="middle" x="173.5" y="-54.3" font-family="Times,serif" font-size="14.00">Management Continuous</text>
<polyline fill="none" stroke="black" points="75.5,-46.5 271.5,-46.5 "/>
<text text-anchor="middle" x="173.5" y="-31.3" font-family="Times,serif" font-size="14.00">Property Management</text>
<polyline fill="none" stroke="black" points="75.5,-23.5 271.5,-23.5 "/>
<text text-anchor="middle" x="173.5" y="-8.3" font-family="Times,serif" font-size="14.00">1 Emp 3$</text>
</g>
<!-- D8&#45;&gt;Movements -->
<g id="edge21" class="edge">
<title>D8&#45;&gt;Movements</title>
<path fill="none" stroke="orange" d="M271.53,-46.42C344.42,-56.87 445.91,-75.46 531,-106 547.09,-111.77 563.89,-120.29 578.06,-128.3"/>
<polygon fill="orange" stroke="orange" points="576.55,-131.47 586.96,-133.46 580.06,-125.41 576.55,-131.47"/>
<text text-anchor="middle" x="448" y="-109.8" font-family="Times,serif" font-size="14.00">place emp on new dept</text>
</g>
<!-- D_C&#45;&gt;Buildprojects -->
<g id="edge22" class="edge">
<title>D_C&#45;&gt;Buildprojects</title>
<path fill="none" stroke="black" d="M2363.63,-689.15C2272.87,-695.65 2084.06,-714.28 1932.25,-763 1923.74,-765.73 1922.95,-769.89 1914.25,-772 1740.1,-814.25 1690.28,-775.89 1511.07,-777 1415.93,-777.59 1392.07,-780.5 1296.99,-777 1291.57,-776.8 1285.97,-776.54 1280.34,-776.23"/>
<polygon fill="black" stroke="black" points="1280.38,-772.73 1270.19,-775.63 1279.97,-779.71 1280.38,-772.73"/>
</g>
<!-- D_C&#45;&gt;Mission -->
<g id="edge24" class="edge">
<title>D_C&#45;&gt;Mission</title>
<path fill="none" stroke="purple" d="M2472.88,-677.41C2516.82,-670.36 2578.66,-660.45 2622.35,-653.45"/>
<polygon fill="purple" stroke="purple" points="2623.17,-656.86 2632.49,-651.82 2622.06,-649.95 2623.17,-656.86"/>
</g>
<!-- D9&#45;&gt;Buildprojects -->
<g id="edge25" class="edge">
<title>D9&#45;&gt;Buildprojects</title>
<path fill="none" stroke="black" d="M2363.64,-776.56C2310.29,-779.17 2226.09,-783.48 2153.25,-788 1773.35,-811.58 1671.71,-871.83 1296.99,-805 1279.65,-801.91 1261.33,-795.87 1245.45,-789.67"/>
<polygon fill="black" stroke="black" points="1246.5,-786.32 1235.91,-785.82 1243.87,-792.81 1246.5,-786.32"/>
</g>
<!-- D9&#45;&gt;Mission -->
<g id="edge27" class="edge">
<title>D9&#45;&gt;Mission</title>
<path fill="none" stroke="purple" d="M2472.96,-747.58C2484.61,-741.81 2496.86,-735.72 2508.25,-730 2553.12,-707.48 2604.58,-681.19 2638.33,-663.87"/>
<polygon fill="purple" stroke="purple" points="2640.06,-666.92 2647.36,-659.24 2636.86,-660.69 2640.06,-666.92"/>
</g>
<!-- D10&#45;&gt;Buildprojects -->
<g id="edge28" class="edge">
<title>D10&#45;&gt;Buildprojects</title>
<path fill="none" stroke="black" d="M975.05,-818.52C1027.3,-807.25 1089.79,-793.77 1135.63,-783.88"/>
<polygon fill="black" stroke="black" points="1136.41,-787.3 1145.44,-781.77 1134.93,-780.45 1136.41,-787.3"/>
</g>
<!-- D11&#45;&gt;Goods -->
<g id="edge31" class="edge">
<title>D11&#45;&gt;Goods</title>
<path fill="none" stroke="blue" stroke-width="3" d="M1105.09,-925.33C1158.01,-925.62 1240.21,-926 1311.49,-926 1311.49,-926 1311.49,-926 1808.66,-926 1883.06,-926 1967.47,-903.81 2016.32,-888.7"/>
<polygon fill="blue" stroke="blue" stroke-width="3" points="2017.4,-892.03 2025.89,-885.69 2015.3,-885.35 2017.4,-892.03"/>
<text text-anchor="middle" x="1428.53" y="-929.8" font-family="Times,serif" font-size="14.00">up to 3x</text>
</g>
<!-- D12 -->
<g id="node27" class="node">
<title>D12</title>
<polygon fill="lightcyan" stroke="black" points="76.5,-864.5 76.5,-933.5 270.5,-933.5 270.5,-864.5 76.5,-864.5"/>
<text text-anchor="middle" x="173.5" y="-918.3" font-family="Times,serif" font-size="14.00">Construction Continuous</text>
<polyline fill="none" stroke="black" points="76.5,-910.5 270.5,-910.5 "/>
<text text-anchor="middle" x="173.5" y="-895.3" font-family="Times,serif" font-size="14.00">Communications</text>
<polyline fill="none" stroke="black" points="76.5,-887.5 270.5,-887.5 "/>
<text text-anchor="middle" x="173.5" y="-872.3" font-family="Times,serif" font-size="14.00">1 Emp $5</text>
</g>
<!-- D12&#45;&gt;Money -->
<g id="edge33" class="edge">
<title>D12&#45;&gt;Money</title>
<path fill="none" stroke="green" d="M270.86,-874.15C300.84,-867.26 334.13,-860.45 365,-856 432.37,-846.28 510.9,-842.47 561.24,-840.97"/>
<polygon fill="green" stroke="green" points="561.64,-844.46 571.54,-840.68 561.45,-837.46 561.64,-844.46"/>
<text text-anchor="middle" x="448" y="-859.8" font-family="Times,serif" font-size="14.00">lowers charity costs</text>
</g>
<!-- D12&#45;&gt;Charity -->
<g id="edge34" class="edge">
<title>D12&#45;&gt;Charity</title>
<path fill="none" stroke="red" d="M270.73,-912.17C359.88,-924.37 489.14,-942.05 560.59,-951.83"/>
<polygon fill="red" stroke="red" points="560.32,-955.32 570.7,-953.21 561.27,-948.39 560.32,-955.32"/>
<text text-anchor="middle" x="448" y="-950.8" font-family="Times,serif" font-size="14.00">lowers charity costs</text>
</g>
<!-- D_RD -->
<g id="node28" class="node">
<title>D_RD</title>
<polygon fill="#eedd82" stroke="black" points="1157.99,-527.5 1157.99,-596.5 1243.99,-596.5 1243.99,-527.5 1157.99,-527.5"/>
<text text-anchor="middle" x="1200.99" y="-581.3" font-family="Times,serif" font-size="14.00">R&amp;D</text>
<polyline fill="none" stroke="black" points="1157.99,-573.5 1243.99,-573.5 "/>
<text text-anchor="middle" x="1200.99" y="-558.3" font-family="Times,serif" font-size="14.00">R&amp;D</text>
<polyline fill="none" stroke="black" points="1157.99,-550.5 1243.99,-550.5 "/>
<text text-anchor="middle" x="1200.99" y="-535.3" font-family="Times,serif" font-size="14.00">3 Emp 3$</text>
</g>
<!-- D_RD&#45;&gt;Researchpoints -->
<g id="edge35" class="edge">
<title>D_RD&#45;&gt;Researchpoints</title>
<path fill="none" stroke="cornflowerblue" stroke-width="3" d="M1243.99,-562.21C1268.49,-562.36 1299.99,-562.61 1327.99,-563 1330.69,-563.04 1333.43,-563.08 1336.2,-563.12"/>
<polygon fill="cornflowerblue" stroke="cornflowerblue" stroke-width="3" points="1336.26,-566.62 1346.32,-563.29 1336.38,-559.62 1336.26,-566.62"/>
<text text-anchor="middle" x="1312.49" y="-566.8" font-family="Times,serif" font-size="14.00">3x</text>
</g>
<!-- D13 -->
<g id="node29" class="node">
<title>D13</title>
<polygon fill="#eedd82" stroke="black" points="1122.99,-337.5 1122.99,-406.5 1278.99,-406.5 1278.99,-337.5 1122.99,-337.5"/>
<text text-anchor="middle" x="1200.99" y="-391.3" font-family="Times,serif" font-size="14.00">R&amp;D</text>
<polyline fill="none" stroke="black" points="1122.99,-383.5 1278.99,-383.5 "/>
<text text-anchor="middle" x="1200.99" y="-368.3" font-family="Times,serif" font-size="14.00">Advanced Research</text>
<polyline fill="none" stroke="black" points="1122.99,-360.5 1278.99,-360.5 "/>
<text text-anchor="middle" x="1200.99" y="-345.3" font-family="Times,serif" font-size="14.00">1 Emp 3$</text>
</g>
<!-- D13&#45;&gt;Mission -->
<g id="edge37" class="edge">
<title>D13&#45;&gt;Mission</title>
<path fill="none" stroke="purple" d="M1279,-359.21C1322.48,-353.06 1377.89,-347 1427.53,-347 1427.53,-347 1427.53,-347 2419.25,-347 2500.21,-347 2531.74,-361.25 2585.25,-422 2636.46,-480.13 2660.62,-571.2 2670.03,-616.88"/>
<polygon fill="purple" stroke="purple" points="2666.65,-617.82 2672.02,-626.95 2673.52,-616.47 2666.65,-617.82"/>
</g>
<!-- D13&#45;&gt;Researchpoints -->
<g id="edge36" class="edge">
<title>D13&#45;&gt;Researchpoints</title>
<path fill="none" stroke="cornflowerblue" stroke-width="8" d="M1242.31,-406.5C1287.5,-445.17 1359.6,-506.87 1399.2,-540.76"/>
<polygon fill="cornflowerblue" stroke="cornflowerblue" stroke-width="8" points="1394.98,-546.36 1407.13,-547.55 1404.09,-535.73 1394.98,-546.36"/>
<text text-anchor="middle" x="1312.49" y="-478.8" font-family="Times,serif" font-size="14.00">8x</text>
</g>
<!-- D14 -->
<g id="node30" class="node">
<title>D14</title>
<polygon fill="#eedd82" stroke="black" points="1130.99,-615.5 1130.99,-684.5 1270.99,-684.5 1270.99,-615.5 1130.99,-615.5"/>
<text text-anchor="middle" x="1200.99" y="-669.3" font-family="Times,serif" font-size="14.00">R&amp;D</text>
<polyline fill="none" stroke="black" points="1130.99,-661.5 1270.99,-661.5 "/>
<text text-anchor="middle" x="1200.99" y="-646.3" font-family="Times,serif" font-size="14.00">Advanced Design</text>
<polyline fill="none" stroke="black" points="1130.99,-638.5 1270.99,-638.5 "/>
<text text-anchor="middle" x="1200.99" y="-623.3" font-family="Times,serif" font-size="14.00">3 Emp 3$</text>
</g>
<!-- D14&#45;&gt;Researchpoints -->
<g id="edge38" class="edge">
<title>D14&#45;&gt;Researchpoints</title>
<path fill="none" stroke="cornflowerblue" stroke-width="4" d="M1264.51,-615.45C1275.17,-610.22 1286.27,-605.19 1296.99,-601 1317.4,-593.02 1340.26,-586.08 1361.08,-580.48"/>
<polygon fill="cornflowerblue" stroke="cornflowerblue" stroke-width="4" points="1362.02,-583.85 1370.8,-577.92 1360.24,-577.08 1362.02,-583.85"/>
<text text-anchor="middle" x="1312.49" y="-604.8" font-family="Times,serif" font-size="14.00">4x</text>
</g>
<!-- D15 -->
<g id="node31" class="node">
<title>D15</title>
<polygon fill="#eedd82" stroke="black" points="102,-1114.5 102,-1183.5 245,-1183.5 245,-1114.5 102,-1114.5"/>
<text text-anchor="middle" x="173.5" y="-1168.3" font-family="Times,serif" font-size="14.00">R&amp;D</text>
<polyline fill="none" stroke="black" points="102,-1160.5 245,-1160.5 "/>
<text text-anchor="middle" x="173.5" y="-1145.3" font-family="Times,serif" font-size="14.00">Charitable Giving</text>
<polyline fill="none" stroke="black" points="102,-1137.5 245,-1137.5 "/>
<text text-anchor="middle" x="173.5" y="-1122.3" font-family="Times,serif" font-size="14.00">1 Emp</text>
</g>
<!-- D15&#45;&gt;Mission -->
<g id="edge39" class="edge">
<title>D15&#45;&gt;Mission</title>
<path fill="none" stroke="purple" d="M245.32,-1159.72C331.85,-1171.87 482.82,-1190 612.99,-1190 612.99,-1190 612.99,-1190 2419.25,-1190 2459.7,-1190 2476.17,-1195.63 2508.25,-1171 2590.83,-1107.6 2653.41,-772.75 2670.43,-673.04"/>
<polygon fill="purple" stroke="purple" points="2673.9,-673.54 2672.11,-663.1 2667,-672.38 2673.9,-673.54"/>
</g>
<!-- D15&#45;&gt;Charity -->
<g id="edge40" class="edge">
<title>D15&#45;&gt;Charity</title>
<path fill="none" stroke="red" d="M245.44,-1118.26C338.58,-1077.91 498.93,-1008.42 573.16,-976.26"/>
<polygon fill="red" stroke="red" points="574.84,-979.35 582.62,-972.16 572.06,-972.92 574.84,-979.35"/>
<text text-anchor="middle" x="448" y="-1068.8" font-family="Times,serif" font-size="14.00">repeat</text>
</g>
<!-- D16 -->
<g id="node32" class="node">
<title>D16</title>
<polygon fill="#eedd82" stroke="black" points="1346.53,-642.5 1346.53,-711.5 1510.53,-711.5 1510.53,-642.5 1346.53,-642.5"/>
<text text-anchor="middle" x="1428.53" y="-696.3" font-family="Times,serif" font-size="14.00">R&amp;D Continuous</text>
<polyline fill="none" stroke="black" points="1346.53,-688.5 1510.53,-688.5 "/>
<text text-anchor="middle" x="1428.53" y="-673.3" font-family="Times,serif" font-size="14.00">Telegraph Operators</text>
<polyline fill="none" stroke="black" points="1346.53,-665.5 1510.53,-665.5 "/>
<text text-anchor="middle" x="1428.53" y="-650.3" font-family="Times,serif" font-size="14.00">1 Emp $5</text>
</g>
<!-- D16&#45;&gt;Transportationlevels -->
<g id="edge41" class="edge">
<title>D16&#45;&gt;Transportationlevels</title>
<path fill="none" stroke="black" d="M1510.9,-680.02C1564.22,-682 1634.67,-684.62 1693.44,-686.8"/>
<polygon fill="black" stroke="black" points="1693.39,-690.3 1703.51,-687.17 1693.65,-683.3 1693.39,-690.3"/>
<text text-anchor="middle" x="1606.07" y="-690.8" font-family="Times,serif" font-size="14.00">lowers dev cost</text>
</g>
</g>
</svg>
